HIERARCHY
ROOT Hips
{
  OFFSET 0.0 0.0 0.0
  CHANNELS 6 XPOSITION YPOSITION ZPOSITION ZROTATION XROTATION YROTATION 
  JOINT LeftUpLeg
  {
    OFFSET 0.089458 -0.0866707 0.00101652
    CHANNELS 3 ZROTATION XROTATION YROTATION 
    JOINT LeftLeg
    {
      OFFSET 0.0 -0.444227 0.013727
      CHANNELS 3 ZROTATION XROTATION YROTATION 
      JOINT LeftFoot
      {
        OFFSET -0.00253549 -0.420924 -0.0146059
        CHANNELS 3 ZROTATION XROTATION YROTATION 
        End Site
        {
          OFFSET -0.0004 -0.0441509 0.084991
        }
      }
    }
  }
  JOINT Spine
  {
    OFFSET 0.0 0.118905 0.0
    CHANNELS 3 ZROTATION XROTATION YROTATION 
    JOINT Spine1
    {
      OFFSET 0.0 0.256574 0.00127663
      CHANNELS 3 ZROTATION XROTATION YROTATION 
      End Site
      {
        OFFSET -0.0029 0.2150836 0.02525291
      }
      JOINT RightArm
      {
        OFFSET -0.162727 -0.05365632 0.00102123
        CHANNELS 3 ZROTATION XROTATION YROTATION 
        JOINT RightForeArm
        {
          OFFSET -0.26364 0.00099144 -0.0142434
          CHANNELS 3 ZROTATION XROTATION YROTATION 
          End Site
          {
            OFFSET -0.220324 0.00085362 0.0102216
          }
        }
      }
      JOINT LeftArm
      {
        OFFSET 0.162727 -0.0536563199 0.00102123
        CHANNELS 3 ZROTATION XROTATION YROTATION 
        JOINT LeftForeArm
        {
          OFFSET 0.262597 0.00099144 -0.0142434
          CHANNELS 3 ZROTATION XROTATION YROTATION 
          End Site
          {
            OFFSET 0.220902 0.00085362 0.0102216
          }
        }
      }
    }
  }
  JOINT RightUpLeg
  {
    OFFSET -0.089458 -0.0866707 0.00101652
    CHANNELS 3 ZROTATION XROTATION YROTATION 
    JOINT RightLeg
    {
      OFFSET 0.0 -0.444227 0.013727
      CHANNELS 3 ZROTATION XROTATION YROTATION 
      JOINT RightFoot
      {
        OFFSET 0.00253549 -0.420924 -0.0146059
        CHANNELS 3 ZROTATION XROTATION YROTATION 
        End Site
        {
          OFFSET 0.0004 -0.0441509 0.084991
        }
      }
    }
  }
}
MOTION
Frames: 8
Frame Time: 0.033333
-31.561341 0.952886701379 -1.8542329 -10.2212995457 -3.44546993035 -100.465996992 -8.62183999686 -19.5602001224 6.88431030834 0.971315012009 38.7692977857 12.882301119 3.60323470702 -11.1007555571 0.310920109457 21.9460996052 16.7713997334 12.3332000135 -29.0527014083 3.61927967515 21.5199009236 66.3063699718 -33.275588806 89.6625228576 12.117798899 57.1247993876 -12.3792004838 -59.6984761386 -3.38027406717 29.4352124924 16.4439997381 42.8139992084 -39.872602148 -6.76530023846 17.8662005101 -0.415139004475 -0.970932948302 47.2652983773 -6.60741998891 15.0981143773 -16.9041615354 1.53186191372 
-31.594908 0.957765701379 -1.8502159 -10.6827001685 -3.95990974679 -100.748001843 -9.85995009526 -16.4189005005 7.47123998966 0.963321022637 37.9343993672 12.9518000014 3.24789091379 -13.2270779693 0.364719321754 21.6028996749 17.7638996443 13.0466995035 -29.1623020388 4.46585046003 22.5484010541 64.5818701498 -33.8953328506 93.2576134178 11.6481004502 58.4512016338 -12.0756002828 -54.0629553563 -5.42103875508 40.5369678184 15.5148003129 41.7712991146 -39.7006009092 -7.89097048208 10.9447002487 -1.48476007543 -1.56381001685 61.8106028564 -11.4630006161 14.3442698137 -12.3808772953 0.88103800051 
-31.625941 0.964580701379 -1.8474369 -11.1031000195 -3.73515981083 -101.029002655 -10.4626997754 -13.1360998495 7.56326995854 0.967842928033 36.3692000472 13.4596996982 3.99163256039 -13.9431251198 0.456018967318 20.9374001931 18.092199517 13.5735999328 -27.7376987477 5.46025001733 22.8575985952 64.9854318769 -34.3775237154 95.1919366511 10.3112002032 57.3015988343 -11.2425007654 -51.1195741259 -6.33762495538 49.2183807252 15.2184998765 40.9129014303 -40.5011981177 -7.78466968671 3.76314010766 -1.77378006377 -3.1473799844 75.128501851 -13.5560992806 13.2990656018 -11.8380317893 0.736328169947 
-31.654958 0.972691701379 -1.8463809 -11.6124997967 -3.28416989046 -100.482000126 -10.7983002665 -9.51600994318 7.10091012107 0.968548998838 34.2979998229 13.964401159 4.37351398642 -14.6210632298 0.520875828995 20.2226994436 18.1319990292 13.4632001702 -25.8780994915 6.26193023767 22.3224993775 63.6243527603 -35.1609873943 94.1011622709 10.7359995497 55.8463997108 -11.2896000423 -52.1734859752 -5.50923186519 53.6478267038 14.7551005696 40.3553018619 -40.5095002126 -7.12530029971 -2.93892986801 -2.28650998505 -12.0801995614 85.7974007685 -5.98480982625 12.8894121997 -13.3406691378 0.87189915404 
-31.68203 0.979916701379 -1.8463579 -11.8301002321 -2.9599700523 -99.2293024506 -11.0419006707 -6.01169003573 6.24635014929 0.962345052638 31.8197988712 14.0134999739 4.01309813741 -15.4355649959 0.520694242012 19.4350010474 18.0625001469 12.7999999008 -24.3743991948 6.49714999986 21.0863990623 61.9932489449 -35.6597175622 91.7085128537 12.2444997619 55.969599248 -12.0994000769 -56.1014526348 -3.89921241696 53.8298409999 14.3996985064 40.1928014163 -40.0595990671 -6.66825008055 -10.0022997753 -3.10152017332 -166.934003391 85.8891028883 148.086997961 12.7918352635 -14.7401356252 1.0136171483 
-31.708525 0.985929701379 -1.8469879 -11.522599993 -2.66770006786 -97.6401018459 -11.1127997419 -3.00463991636 4.62670995272 0.788434989434 29.1458003018 14.2087998417 3.75503096556 -15.9280592011 0.513552745627 18.5075006317 17.6877993841 11.796500824 -23.0395992309 6.05382035008 19.2995003396 62.9667558073 -35.6692388459 89.260170074 11.9792997381 55.6899986241 -11.3113994448 -60.2729496893 -3.2107252932 50.9638697185 14.8506002746 40.4502005102 -40.5421997433 -6.43592034216 -17.6740006945 -3.8489802176 -174.034995901 80.5945997909 153.7780072 11.9422425468 -15.7874631721 1.03397996993 
-31.736073 0.992016701379 -1.8488239 -10.9750997131 -2.17204988838 -95.6410010985 -10.7824004398 -0.167420996626 1.59253000181 0.367218984228 26.4452988907 15.456800054 3.67856486337 -16.1665608692 0.514462174642 17.4911018889 16.9025000918 10.4017002097 -21.3045997006 5.06963021804 16.9763002858 66.19112419 -35.8847108237 85.2905734114 6.92112972372 51.9495992044 -2.95788022786 -63.2654673005 -4.82029458928 45.8409307278 16.2182995521 40.994201172 -42.3158017952 -6.19306997801 -24.8610006543 -4.5145599541 -174.763995652 78.6485969341 152.412993895 10.7023839199 -17.1867537821 1.02668692872 
-31.765027 0.998098701379 -1.8521479 -10.5493005976 -1.45610006807 -93.2463026245 -9.93433939305 2.92715995797 -0.233107019255 0.801850014573 23.7094000243 15.0135993241 3.38936078009 -16.4660475888 0.493296272178 16.4793989011 16.0081995182 8.63741026685 -19.1032007028 3.75165002192 14.2978996594 65.4514898349 -35.956718093 75.7418050272 0.810360056752 40.6179021449 12.1469996652 -66.2194899656 -7.51533654471 38.1283972302 17.5243990611 41.519797889 -43.8786993415 -5.92180986889 -30.6655993543 -5.26930994465 -173.491995862 80.2848985234 148.61700698 10.2022399029 -18.7210499112 1.09800626993 
